<?xml version="1.0" encoding="utf-8"?>
<!-- Generator: Adobe Illustrator 19.1.0, SVG Export Plug-In . SVG Version: 6.00 Build 0)  -->
<svg version="1.1" id="Layer_1" xmlns="http://www.w3.org/2000/svg" xmlns:xlink="http://www.w3.org/1999/xlink" x="0px" y="0px"
	 viewBox="234 -296 500 500" style="enable-background:new 234 -296 500 500;" xml:space="preserve">
<style type="text/css">
	.st0{font-family:'ProximaNova-Bold';}
	.st1{font-size:142.6736px;}
	.st2{font-family:'ProximaNova-Light';}
	.st3{fill:#47C5CA;}
</style>
<text transform="matrix(1 0 0 1 240.9938 32.1025)" class="st0 st1">Builder</text>
<text transform="matrix(1 0 0 1 240.994 -77.8975)" class="st2 st1">Form</text>
<path class="st3" d="M657.5-133.4l-39.8,34.8h51.4c2.5,0,4.1,0.8,5.8,3.3c1.7,1.7,2.5,4.1,2.5,6.6c0,2.5-0.8,5-2.5,7.5
	c-1.7,1.7-3.3,3.3-5.8,3.3h-66.3c-4.1,0-7.5-1.7-9.9-4.1c-2.5-2.5-3.3-5.8-3.3-9.1c0-4.1,1.7-8.3,5-11.6l48-48
	c8.3-7.5,11.6-14.9,11.6-21.5c0-5.8-1.7-10.8-5.8-14.1c-4.1-3.3-9.1-5.8-14.9-5.8c-3.3,0-6.6,0-9.9,0.8s-5,1.7-6.6,1.7l-6.6,3.3
	c-3.3,1.7-5,2.5-5.8,3.3c-0.8,0.8-1.7,0.8-2.5,0.8c-2.5,0-5-0.8-7.5-3.3c-2.5-2.5-3.3-5-3.3-7.5c0-3.3,1.7-5.8,5-7.5
	c5.8-3.3,12.4-6.6,19.1-8.3s13.3-3.3,20.7-3.3c12.4,0,23.2,3.3,31.5,10.8c8.3,7.5,12.4,16.6,12.4,27.3
	C679.9-159.9,672.4-146.7,657.5-133.4L657.5-133.4z"/>
</svg>
