<?xml version="1.0" encoding="utf-8"?>
<!-- Generator: Adobe Illustrator 19.1.0, SVG Export Plug-In . SVG Version: 6.00 Build 0)  -->
<svg version="1.1" id="Layer_1" xmlns="http://www.w3.org/2000/svg" xmlns:xlink="http://www.w3.org/1999/xlink" x="0px" y="0px"
	 viewBox="0 0 16 16" style="enable-background:new 0 0 16 16;" xml:space="preserve">
<style type="text/css">
	.st0{fill:#010101;}
</style>
<path class="st0" d="M7.9,3.1h4.3c1.6,0,2.4,1,2.4,2.1c0,1-0.6,1.7-1.4,1.9c0.9,0.1,1.6,1,1.6,2c0,1.2-0.8,2.2-2.4,2.2H7.9V3.1z
	 M11.9,6.4c0.6,0,1-0.4,1-0.9c0-0.5-0.4-0.9-1-0.9H9.7v1.8H11.9z M11.9,9.8c0.7,0,1.1-0.4,1.1-1c0-0.5-0.4-1-1.1-1H9.7v1.9H11.9z"/>
<g>
	<path d="M1.3,3.1H7v1.3H2.8v2.1h4.1v1.3H2.8v3.6H1.3V3.1z"/>
</g>
</svg>
